<svg id="20bf899d-670e-482f-b76e-c35f62d51f5e" data-name="レイヤー 1" xmlns="http://www.w3.org/2000/svg" viewBox="0 0 976.4 153.9"><defs><style>.\31 e124258-4fce-4dcd-8069-b56c2a439118{fill:#fff;}.ec9545b3-2f88-4266-b48a-05b41b2ee6b8{isolation:isolate;}.\37 878a6de-0c56-495d-b073-cc16be68117a{fill:#174d74;}.\37 c906dfd-626f-43c9-8f35-3b68330628c6{fill:#257cbb;}.\34 728ca89-7754-4a2d-b834-bfc242a7a015{fill:#216fa8;}.ac528f0b-1e12-4cd0-bf1c-9ffae6ff0042{fill:#1b526d;}.\31 1a78a39-bf3d-4b7e-94fe-d9372550948a{fill:#2c84b0;}.\34 5312f82-cebc-405a-8db5-3bc333946e76{fill:#27769e;}.ece8f88c-f92a-4806-8d90-41b6825ba787{fill:none;}</style></defs><title>logo_full2</title><path class="1e124258-4fce-4dcd-8069-b56c2a439118" d="M183,49.6a3.53,3.53,0,0,1,3.9-3.3H198c2.2,0,3.1,1,2.6,3.3L196,74c-.2,1,.3,1.6,1.4,1.6h23.1a1.78,1.78,0,0,0,1.9-1.6L227,49.5c.4-2.3,1.7-3.3,4-3.3h11c2.3,0,3.1,1,2.6,3.3l-12,63.9c-.4,2.3-1.6,3.3-3.9,3.3h-11c-2.3,0-3.1-1.1-2.7-3.3l4.6-24.5c.2-1-.2-1.6-1.3-1.6H195.2a1.88,1.88,0,0,0-2,1.6l-4.6,24.5a3.53,3.53,0,0,1-3.9,3.3H173.6c-2.2,0-3.1-1.1-2.6-3.3Z" transform="translate(-17.6 -10.1)"/><path class="1e124258-4fce-4dcd-8069-b56c2a439118" d="M261,77c1.6-8.8,6.8-13,15.5-13h26.8c8.7,0,12.2,4.3,10.6,13l-5,26.7c-1.6,8.8-6.8,13.1-15.5,13.1H266.6c-8.7,0-12.2-4.3-10.6-13.1Zm26.7,28a3.59,3.59,0,0,0,3.9-3.3l4.3-22.9c.4-2.2-.5-3.3-2.6-3.3H282.2a3.59,3.59,0,0,0-3.9,3.3L274,101.7c-.4,2.2.5,3.3,2.6,3.3Z" transform="translate(-17.6 -10.1)"/><path class="1e124258-4fce-4dcd-8069-b56c2a439118" d="M334.1,83.2l1.2-6.2c1.6-8.8,6.8-13,15.5-13h36.6c2.2,0,3.1,1,2.6,3.3l-1,5.2a3.53,3.53,0,0,1-3.9,3.3H356.4a3.59,3.59,0,0,0-3.9,3.3l-.4,2.3c-.4,2.2.5,3.3,2.6,3.3h19c8.7,0,12.2,4.3,10.6,13l-1.2,6.2c-1.6,8.8-6.8,13.1-15.5,13.1H331c-2.2,0-3.1-1.1-2.6-3.3l1-5.2a3.59,3.59,0,0,1,3.9-3.3H362a3.59,3.59,0,0,0,3.9-3.3l.4-2.3c.4-2.2-.5-3.3-2.6-3.3h-19C336,96.2,332.4,91.9,334.1,83.2Z" transform="translate(-17.6 -10.1)"/><path class="1e124258-4fce-4dcd-8069-b56c2a439118" d="M412.7,103.7l5-26.4c.2-1.1-.3-1.7-1.4-1.7H413c-2.2,0-3.1-1-2.6-3.3l1-5.2a3.53,3.53,0,0,1,3.9-3.3h3.3a1.88,1.88,0,0,0,2-1.7l1.5-8.2a3.54,3.54,0,0,1,3.9-3.3h11c2.2,0,3.1,1.1,2.6,3.3l-1.5,8.2c-.2,1.1.3,1.7,1.3,1.7H444c2.2,0,3.1,1,2.6,3.3l-1,5.2a3.53,3.53,0,0,1-3.9,3.3h-4.6a1.85,1.85,0,0,0-1.9,1.7l-4.6,24.5c-.4,2.2.4,3.3,2.6,3.3h2.9c2.2,0,3.1,1.1,2.6,3.3l-1,5.2a3.53,3.53,0,0,1-3.9,3.3H423C414.6,116.8,411,112.5,412.7,103.7Z" transform="translate(-17.6 -10.1)"/><path class="1e124258-4fce-4dcd-8069-b56c2a439118" d="M508.3,116.8H471.7c-8.7,0-12.2-4.3-10.6-13.1l5-26.7c1.6-8.8,6.8-13,15.5-13h20.6a1.88,1.88,0,0,0,2-1.7l2.4-12.7a3.53,3.53,0,0,1,3.9-3.3h11.1c2.2,0,3.1,1,2.6,3.3l-12,63.9A3.59,3.59,0,0,1,508.3,116.8Zm-11.5-15,4.3-22.9c.4-2.2-.5-3.3-2.6-3.3H487.4a3.59,3.59,0,0,0-3.9,3.3l-4.3,22.9c-.4,2.2.5,3.3,2.6,3.3h11.1A3.73,3.73,0,0,0,496.8,101.8Z" transform="translate(-17.6 -10.1)"/><path class="1e124258-4fce-4dcd-8069-b56c2a439118" d="M540.4,77c1.6-8.8,6.8-13,15.5-13h26.8c8.7,0,12.2,4.3,10.6,13l-5,26.7c-1.6,8.8-6.8,13.1-15.5,13.1H546c-8.7,0-12.2-4.3-10.6-13.1Zm26.8,28a3.59,3.59,0,0,0,3.9-3.3l4.3-22.9c.4-2.2-.5-3.3-2.6-3.3H561.7a3.59,3.59,0,0,0-3.9,3.3l-4.3,22.9c-.4,2.2.5,3.3,2.6,3.3Z" transform="translate(-17.6 -10.1)"/><path class="1e124258-4fce-4dcd-8069-b56c2a439118" d="M616.5,67.2a3.53,3.53,0,0,1,3.9-3.3H657c8.7,0,12.2,4.3,10.6,13l-6.9,36.5a3.53,3.53,0,0,1-3.9,3.3H645.7c-2.2,0-3.1-1.1-2.6-3.3l6.5-34.6c.4-2.2-.5-3.3-2.6-3.3H635.9a3.59,3.59,0,0,0-3.9,3.3l-6.5,34.6a3.53,3.53,0,0,1-3.9,3.3H610.5c-2.2,0-3.1-1.1-2.6-3.3Z" transform="translate(-17.6 -10.1)"/><g class="ec9545b3-2f88-4266-b48a-05b41b2ee6b8"><polygon class="7878a6de-0c56-495d-b073-cc16be68117a" points="35.3 142.8 0.1 122.3 0 81.5 35.2 102 35.3 142.8"/><polygon class="7c906dfd-626f-43c9-8f35-3b68330628c6" points="35.2 102 0 81.5 35.5 61 70.7 81.5 35.2 102"/><polygon class="4728ca89-7754-4a2d-b834-bfc242a7a015" points="70.7 81.5 70.8 122.3 35.3 142.8 35.2 102 70.7 81.5"/></g><g class="ec9545b3-2f88-4266-b48a-05b41b2ee6b8"><polygon class="7878a6de-0c56-495d-b073-cc16be68117a" points="105.3 142.8 70.1 122.3 70 81.5 105.2 102 105.3 142.8"/><polygon class="7c906dfd-626f-43c9-8f35-3b68330628c6" points="105.2 102 70 81.5 105.5 61 140.7 81.5 105.2 102"/><polygon class="4728ca89-7754-4a2d-b834-bfc242a7a015" points="140.7 81.5 140.8 122.3 105.3 142.8 105.2 102 140.7 81.5"/></g><g class="ec9545b3-2f88-4266-b48a-05b41b2ee6b8"><polygon class="ac528f0b-1e12-4cd0-bf1c-9ffae6ff0042" points="70.3 81.8 35.1 61.3 35 20.5 70.2 41 70.3 81.8"/><polygon class="11a78a39-bf3d-4b7e-94fe-d9372550948a" points="70.2 41 35 20.5 70.5 0 105.7 20.5 70.2 41"/><polygon class="45312f82-cebc-405a-8db5-3bc333946e76" points="105.7 20.5 105.8 61.3 70.3 81.8 70.2 41 105.7 20.5"/></g><rect class="ece8f88c-f92a-4806-8d90-41b6825ba787" x="973.4" y="152.9" width="3" height="1"/></svg>