<?xml version="1.0" encoding="utf-8"?>
<!-- Generator: Adobe Illustrator 22.0.1, SVG Export Plug-In . SVG Version: 6.00 Build 0)  -->
<svg version="1.1" id="レイヤー_1" xmlns="http://www.w3.org/2000/svg" xmlns:xlink="http://www.w3.org/1999/xlink" x="0px"
	 y="0px" viewBox="0 0 680 160" style="enable-background:new 0 0 680 160;" xml:space="preserve">
<style type="text/css">
	.st0{fill:#9BAEC8;}
	.st1{enable-background:new    ;}
	.st2{fill:#174D74;}
	.st3{fill:#257CBB;}
	.st4{fill:#216FA8;}
	.st5{fill:#1B526D;}
	.st6{fill:#2C84B0;}
	.st7{fill:#27769E;}
	.st8{fill:none;}
</style>
<g>
	<path class="st0" d="M183,49.6c0.4-2.3,1.7-3.3,3.9-3.3H198c2.2,0,3.1,1,2.6,3.3L196,74c-0.2,1,0.3,1.6,1.4,1.6h23.1
		c1.1,0,1.7-0.6,1.9-1.6l4.6-24.5c0.4-2.3,1.7-3.3,4-3.3h11c2.3,0,3.1,1,2.6,3.3l-12,63.9c-0.4,2.3-1.6,3.3-3.9,3.3h-11
		c-2.3,0-3.1-1.1-2.7-3.3l4.6-24.5c0.2-1-0.2-1.6-1.3-1.6h-23.1c-1.1,0-1.8,0.6-2,1.6l-4.6,24.5c-0.4,2.3-1.7,3.3-3.9,3.3h-11.1
		c-2.2,0-3.1-1.1-2.6-3.3L183,49.6z"/>
	<path class="st0" d="M261,77c1.6-8.8,6.8-13,15.5-13h26.8c8.7,0,12.2,4.3,10.6,13l-5,26.7c-1.6,8.8-6.8,13.1-15.5,13.1h-26.8
		c-8.7,0-12.2-4.3-10.6-13.1L261,77z M287.7,105c2.2,0,3.5-1.1,3.9-3.3l4.3-22.9c0.4-2.2-0.5-3.3-2.6-3.3h-11.1
		c-2.2,0-3.5,1.1-3.9,3.3l-4.3,22.9c-0.4,2.2,0.5,3.3,2.6,3.3H287.7z"/>
	<path class="st0" d="M334.1,83.2l1.2-6.2c1.6-8.8,6.8-13,15.5-13h36.6c2.2,0,3.1,1,2.6,3.3l-1,5.2c-0.4,2.3-1.7,3.3-3.9,3.3h-28.7
		c-2.2,0-3.5,1.1-3.9,3.3l-0.4,2.3c-0.4,2.2,0.5,3.3,2.6,3.3h19c8.7,0,12.2,4.3,10.6,13l-1.2,6.2c-1.6,8.8-6.8,13.1-15.5,13.1H331
		c-2.2,0-3.1-1.1-2.6-3.3l1-5.2c0.4-2.2,1.7-3.3,3.9-3.3H362c2.2,0,3.5-1.1,3.9-3.3l0.4-2.3c0.4-2.2-0.5-3.3-2.6-3.3h-19
		C336,96.2,332.4,91.9,334.1,83.2z"/>
	<path class="st0" d="M412.7,103.7l5-26.4c0.2-1.1-0.3-1.7-1.4-1.7H413c-2.2,0-3.1-1-2.6-3.3l1-5.2c0.4-2.3,1.7-3.3,3.9-3.3h3.3
		c1.1,0,1.8-0.6,2-1.7l1.5-8.2c0.4-2.2,1.6-3.3,3.9-3.3H437c2.2,0,3.1,1.1,2.6,3.3l-1.5,8.2c-0.2,1.1,0.3,1.7,1.3,1.7h4.6
		c2.2,0,3.1,1,2.6,3.3l-1,5.2c-0.4,2.3-1.7,3.3-3.9,3.3h-4.6c-1,0-1.7,0.6-1.9,1.7l-4.6,24.5c-0.4,2.2,0.4,3.3,2.6,3.3h2.9
		c2.2,0,3.1,1.1,2.6,3.3l-1,5.2c-0.4,2.3-1.7,3.3-3.9,3.3h-10.8C414.6,116.8,411,112.5,412.7,103.7z"/>
	<path class="st0" d="M508.3,116.8h-36.6c-8.7,0-12.2-4.3-10.6-13.1l5-26.7c1.6-8.8,6.8-13,15.5-13h20.6c1.1,0,1.8-0.6,2-1.7
		l2.4-12.7c0.4-2.3,1.7-3.3,3.9-3.3h11.1c2.2,0,3.1,1,2.6,3.3l-12,63.9C511.8,115.7,510.5,116.8,508.3,116.8z M496.8,101.8l4.3-22.9
		c0.4-2.2-0.5-3.3-2.6-3.3h-11.1c-2.2,0-3.5,1.1-3.9,3.3l-4.3,22.9c-0.4,2.2,0.5,3.3,2.6,3.3h11.1C495.1,105,496.3,104,496.8,101.8z
		"/>
	<path class="st0" d="M540.4,77c1.6-8.8,6.8-13,15.5-13h26.8c8.7,0,12.2,4.3,10.6,13l-5,26.7c-1.6,8.8-6.8,13.1-15.5,13.1H546
		c-8.7,0-12.2-4.3-10.6-13.1L540.4,77z M567.2,105c2.2,0,3.5-1.1,3.9-3.3l4.3-22.9c0.4-2.2-0.5-3.3-2.6-3.3h-11.1
		c-2.2,0-3.5,1.1-3.9,3.3l-4.3,22.9c-0.4,2.2,0.5,3.3,2.6,3.3H567.2z"/>
	<path class="st0" d="M616.5,67.2c0.4-2.3,1.7-3.3,3.9-3.3H657c8.7,0,12.2,4.3,10.6,13l-6.9,36.5c-0.4,2.3-1.7,3.3-3.9,3.3h-11.1
		c-2.2,0-3.1-1.1-2.6-3.3l6.5-34.6c0.4-2.2-0.5-3.3-2.6-3.3h-11.1c-2.2,0-3.5,1.1-3.9,3.3l-6.5,34.6c-0.4,2.3-1.7,3.3-3.9,3.3h-11.1
		c-2.2,0-3.1-1.1-2.6-3.3L616.5,67.2z"/>
</g>
<g>
	<g>
		<g class="st1">
			<g>
				<polygon class="st2" points="52.9,152.9 17.7,132.4 17.6,91.6 52.8,112.1 				"/>
			</g>
			<g>
				<polygon class="st3" points="52.8,112.1 17.6,91.6 53.1,71.1 88.3,91.6 				"/>
			</g>
			<g>
				<polygon class="st4" points="88.3,91.6 88.4,132.4 52.9,152.9 52.8,112.1 				"/>
			</g>
		</g>
	</g>
</g>
<g>
	<g>
		<g class="st1">
			<g>
				<polygon class="st2" points="122.9,152.9 87.7,132.4 87.6,91.6 122.8,112.1 				"/>
			</g>
			<g>
				<polygon class="st3" points="122.8,112.1 87.6,91.6 123.1,71.1 158.3,91.6 				"/>
			</g>
			<g>
				<polygon class="st4" points="158.3,91.6 158.4,132.4 122.9,152.9 122.8,112.1 				"/>
			</g>
		</g>
	</g>
</g>
<g>
	<g>
		<g class="st1">
			<g>
				<polygon class="st5" points="87.9,91.9 52.7,71.4 52.6,30.6 87.8,51.1 				"/>
			</g>
			<g>
				<polygon class="st6" points="87.8,51.1 52.6,30.6 88.1,10.1 123.3,30.6 				"/>
			</g>
			<g>
				<polygon class="st7" points="123.3,30.6 123.4,71.4 87.9,91.9 87.8,51.1 				"/>
			</g>
		</g>
	</g>
</g>
<g>
	<rect x="991" y="163" class="st8" width="3" height="1"/>
</g>
<g>
</g>
<g>
</g>
<g>
</g>
<g>
</g>
<g>
</g>
<g>
</g>
<g>
</g>
<g>
</g>
<g>
</g>
<g>
</g>
<g>
</g>
<g>
</g>
<g>
</g>
<g>
</g>
<g>
</g>
</svg>
